<?xml version="1.0" encoding="utf-8"?>
<!-- Generator: Adobe Illustrator 25.2.0, SVG Export Plug-In . SVG Version: 6.00 Build 0)  -->
<svg version="1.1" id="Layer_1" xmlns="http://www.w3.org/2000/svg" xmlns:xlink="http://www.w3.org/1999/xlink" x="0px" y="0px"
	 width="500px" height="500px" viewBox="0 0 500 500" style="enable-background:new 0 0 500 500;" xml:space="preserve">
<style type="text/css">
	.st0{fill:#EB9F16;}
	.st1{fill:#EC5B1A;}
	.st2{fill:#0C697B;}
</style>
<g>
	<g id="XMLID_2_">
		<path class="st0" d="M473.5,306.7c0,7.5-1.4,13.8-4.3,18.9c-3.8,6.5-9.2,9.7-16.2,9.7c-5.1,0-9.8-3.9-14.2-11.7
			c-6.3,11.7-14.6,17.6-25,17.6c-11.9,0-18-6.1-18.5-18.3c-0.1-0.6-0.4-0.9-0.9-0.9c-0.6,0-1.6,0.5-2.9,1.6
			c-9.6,7.8-19.8,13.2-30.7,16.2c-0.7,0.2-1.3,0.4-2,0.6c-0.7,0.2-1.3,0.4-2,0.5c-4,0.9-7.9,1.4-11.7,1.4c-6.3,0-13.1-1.5-20.3-4.5
			v-0.2h0.2v-17.8c6,3,14,4.5,24.1,4.5c0.2,0,0.3,0,0.5,0c0,0,0.1,0,0.1,0c3.3,0,6.6-0.4,10-1.1c15-3,28.6-9.4,40.6-19.2
			c1.2-0.9,2.2-1.4,2.9-1.6c0.9,0.2,1.4,0.7,1.4,1.6c0,0.6-0.2,1.3-0.4,2c-0.9,2.9-1.4,5.3-1.4,7.4c0,6.3,5,9.5,14.9,9.5
			c7.4,0,13.3-3.1,17.8-9.2c3.2-4.7,6.2-9.4,9.3-14.2c1-1.2,2-1.8,2.7-1.8c0.9,0,1.4,0.7,1.4,2l-0.2,1.8c-1.1,4.7-1.7,7-1.8,7
			c0,2.3,1.2,4.4,3.7,6.5c2.5,2.1,5.4,3.2,8.9,3.2c3.9,0,6.5-1.1,7.9-3.4c0-0.3-0.6-1-1.7-2.2c-1.1-1.1-1.7-2-1.7-2.6
			c0-0.7,1.2-5,3.6-12.6c0.4-1.3,0.9-2,1.3-2c1.1,0,2.1,1.6,3.2,4.6C473,303.1,473.5,305.4,473.5,306.7z"/>
		<path class="st1" d="M461.3,355.9c0,1.8-0.4,3.9-1.2,6.4c-0.8,2.5-1.7,4-2.5,4.5c-0.8,0.5-1.8,0.8-3,0.8c-1.7,0-3.8-0.7-6.5-2
			c-3.6,3.8-7.1,5.6-10.6,5.6c-1.1,0-2.4-0.3-4-0.9c-1.6-0.6-2.7-0.9-3.5-0.9c-5.9,0-11.9,2.9-18,8.6l-13.5,13.3
			c-2.6,2.1-5.2,3.5-7.9,4.3c-3.3,0.9-5.3,1.4-5.9,1.4c0-0.2,1.2-0.9,3.6-2.4c2.4-1.4,6-4,10.8-7.8c2.4-2.4,5.9-6.2,10.4-11.3
			c3-3.6,6.2-6.8,9.7-9.5c4.2-3,8.5-4.6,12.9-4.7c1.1,0,2.4,0.3,4.1,1c1.6,0.7,3.1,1,4.3,1c2.3,0,4-0.9,5.2-2.6
			c1.2-1.7,2.3-3.3,3.3-4.7s1.8-2.1,2.4-2.1c0.3,0,0.4,0.3,0.4,0.9c0,0.8-0.4,2-1.1,3.8v0.2c0,0.7,2.1,1.1,6.3,1.1
			c0.4,0,0.7-0.1,0.7-0.2s0-0.3,0-0.4l-0.7-3.4c0-0.6,0.2-1.4,0.7-2.3c1.1-1.8,1.8-2.7,2.3-2.7C460.8,352,461.3,353.6,461.3,355.9z"
			/>
		<path class="st2" d="M432.7,268.4v0.7c-0.1,0.9-0.2,1.7-0.3,2.4l-2.4-0.4c0-1.8-3.2-4.4-9.5-7.7c-1.5,2.7-2.4,5.2-2.7,7.5
			l-2.6-0.5c1.7-8.2,4.5-15.8,8.3-23c0.7-1.5,1.7-2.2,2.9-2.2c0.6,0,0.9,0.3,0.9,0.9c0,0.3-0.1,0.5-0.2,0.7
			c-1.2,2.7-2.3,5.6-3.4,8.6C429.7,259.7,432.7,264,432.7,268.4z"/>
		<path class="st2" d="M430,271.1l2.4,0.4c-1.3,8.2-5.3,12.2-12.1,12.2c-3.9,0-5.9-2.3-5.9-7l0.2-3.6c0.2-0.9,0.3-1.8,0.5-2.7
			l2.6,0.5c-0.1,0.8-0.2,1.5-0.2,2.2c0,1.8,0.9,2.7,2.7,2.7c1.5,0,3.3-0.5,5.3-1.6C427.6,273.2,429.1,272.1,430,271.1z"/>
		<path class="st1" d="M411.7,214c0,0.9-0.2,2.1-0.7,3.5c-0.4,1.4-1.1,2.1-1.8,2.1c-0.3,0-1-0.6-2-1.8c-1.1-1.2-2.1-1.8-3.1-1.8
			c-2.4,0-4.6,5.6-6.5,16.7c-0.9,4.8-2,8.3-3.2,10.4c-0.8,1.3-1.3,2-1.8,2c-0.4,0-0.7-0.6-0.7-1.8c0-2-1.2-5.8-3.5-11.5
			c-2.3-5.7-4-8.6-4.9-8.6c-0.6,0-1,0.2-1.2,0.7c-0.2,0.4-0.8,0.7-1.7,0.7c-1.1,0-2.4-0.7-3.9-2.2c-1.6-1.5-2.4-2.7-2.6-3.6
			c0.2-0.4,0.9-1.8,2.3-4.2c1.3-2.3,2.2-3.5,2.5-3.5c3.5,0,6.5,2,9.1,6s4.5,9.1,5.5,15.5l0.2,1.1l0.2,0.2v-0.2
			c0.2,0,0.3-0.4,0.4-1.1c0.6-3.8,2-9.4,4.1-16.9c2.2-5.4,4.7-8.1,7.4-8.1c1.3,0,2.7,0.9,4,2.6C411.1,211.8,411.7,213.1,411.7,214z"
			/>
		<path class="st0" d="M409.2,161c0,0.8-0.2,1.9-0.7,3.4c-0.4,1.5-1.1,2.2-1.8,2.2c-0.3,0-1-0.6-2-1.9c-1.1-1.3-2.1-1.9-3.1-1.9
			c-2.4,0-4.6,5.6-6.5,16.9c-1.5,8.1-3.2,12.2-5,12.2c-0.4,0-0.7-0.6-0.7-1.8c0-2-1.1-5.8-3.4-11.4c-2.3-5.6-3.9-8.5-5-8.5
			c-0.6,0-1,0.2-1.2,0.6c-0.2,0.4-0.8,0.6-1.7,0.6c-0.9,0-2.2-0.8-3.8-2.3s-2.5-2.7-2.5-3.6c0-0.3,0.7-1.6,2-3.9
			c1.3-2.3,2.2-3.6,2.5-3.7c3.5,0.2,6.5,2.2,9.1,6.1c2.6,3.9,4.5,9.1,5.5,15.6c0.1,0.6,0.2,1,0.2,1.1h0.2c0.1,0,0.3-0.4,0.4-1.1
			c0.6-3.8,2-9.5,4.1-17.1c2.2-5.4,4.7-8.1,7.4-8.1c1.3,0,2.7,0.9,4,2.6C408.6,158.6,409.2,160,409.2,161z"/>
		<path class="st1" d="M360.7,339.9c0.8,11.3,1.1,17.8,1.1,19.6c0,13.7-2.1,25.9-6.3,36.8c-0.9,2.1-1.6,3.6-2.1,4.5
			s-0.9,1.3-1.2,1.3c-0.3,0-0.4-0.5-0.4-1.6c0-1.2,0.2-3.1,0.4-5.6c0.6-4.8,0.9-10.4,0.9-16.9c0-2.9-0.7-14.8-2.2-35.9
			c1.9-0.3,3.9-0.7,5.9-1.2c0.7-0.1,1.3-0.3,2-0.5C359.4,340.3,360.1,340.1,360.7,339.9z"/>
		<path class="st1" d="M345.6,138.7l14,184.5c-3.4,0.6-6.8,1-10,1.1c0,0-0.1,0-0.1,0l-5.2-69.2c-5.7-76.4-8.6-117.1-8.6-122
			c0-5.9-0.9-10.6-2.7-14.2c0-2,1.7-6.9,5.2-14.9c0.4-1,0.8-1.6,1.1-1.6c0.6,0,3.2,6.2,7.9,18.6s7,19.6,7,21.5
			c0,0.9-0.2,1.4-0.7,1.4c-1.2,0-3.5-2.1-7-6.3l-0.4-0.4C345.8,137.1,345.6,137.6,345.6,138.7z"/>
		<path class="st2" d="M348.8,419.9c0,0.7-0.2,1.9-0.7,3.4c-0.4,1.5-1.1,2.3-1.8,2.3c-0.3,0-1-0.7-2-1.9c-1.1-1.3-2.1-1.9-3.2-1.9
			c-2.4,0.2-4.6,5.8-6.5,16.9c-1.5,8.3-3.2,12.4-5,12.4c-0.4,0-0.7-0.7-0.7-2c0-2-1.1-5.8-3.4-11.4c-2.2-5.6-3.9-8.5-5-8.5
			c-0.6,0-1,0.2-1.2,0.6c-0.2,0.4-0.6,0.6-1,0.6h-0.9c-0.9,0-2.2-0.7-3.7-2.1c-1.6-1.4-2.4-2.7-2.4-3.7c0-0.3,0.7-1.6,2-4
			c1.3-2.3,2.2-3.5,2.5-3.5c3.5,0,6.5,2,9.1,6c2.6,4,4.5,9.1,5.5,15.5l0.4,1.3l0.4-1.3c0.6-3.8,2-9.5,4.1-17.1
			c2.3-5.4,4.7-8.1,7.5-8.1c1.3,0,2.7,0.9,3.9,2.7C348.1,417.7,348.8,419,348.8,419.9z"/>
		<path class="st2" d="M327.8,106.7l-0.2,1.3c-0.6,2.6-1.3,4.2-2.2,5c-3.3,2-10.5,6.8-21.7,14.4l-1.6,1.1c-0.2,0-0.2-0.2-0.2-0.7
			c0.2-1.4,0.3-2.6,0.6-3.6c0.2-1.1,2.1-2.9,5.5-5.6c-4.4-1.7-6.5-3.6-6.5-5.9c0-2.4,0.9-4.7,2.6-7.1l4,1.6
			c-0.4,0.4-0.5,0.8-0.5,1.2c0,0.9,0.9,1.8,2.7,2.8c1.8,1,3.2,1.5,4.3,1.5c1.1,0,2.8-0.8,5.2-2.3v-0.2c1.8-1.1,3.4-2,4.9-2.8
			c1.4-0.8,2.4-1.2,2.8-1.2C327.7,106.2,327.8,106.4,327.8,106.7z"/>
		<path class="st2" d="M324,190.5c0,0.5-0.1,1.2-0.5,2.2c-0.3,1-0.7,1.5-1.2,1.5c-0.2,0-0.6-0.4-1.3-1.3c-0.6-0.9-1.4-1.3-2.2-1.3
			c-1.6,0-3.1,3.7-4.3,11.2c-1,5.5-2.1,8.2-3.3,8.2c-0.3,0-0.5-0.4-0.5-1.3c0-1.3-0.7-3.8-2.2-7.5c-1.5-3.7-2.6-5.6-3.3-5.6
			c-0.4,0-0.6,0.1-0.7,0.4c-0.1,0.3-0.3,0.4-0.7,0.4c-0.9,0-1.9-0.5-3-1.5c-1.1-1-1.6-1.8-1.6-2.4c0-0.2,0.5-1.1,1.3-2.6
			c0.9-1.5,1.4-2.3,1.6-2.3c2.3,0,4.3,1.3,6,3.9c1.7,2.6,3,6,3.7,10.3c0.1,0.4,0.1,0.6,0.1,0.7h0.2c0.1,0,0.2-0.2,0.3-0.7
			c0.4-2.5,1.3-6.3,2.7-11.4c1.5-3.6,3.1-5.4,4.9-5.4c0.9,0,1.8,0.6,2.6,1.7C323.6,188.9,324,189.8,324,190.5z"/>
		<path class="st2" d="M324.9,319.8v17.8h-0.2c-10.7-4.4-18-11.4-21.9-21.2c-2,3.9-5.3,8-10.2,12.2c-7.4,6.3-15,9.5-23,9.5v-18
			c10.1,0,18.5-2.7,25.3-8.1c0.6-0.4,3.2-3.1,7.8-8.1c4.6-5,7-7.5,7.3-7.5c0.8,0,1.1,0.6,1.1,1.8c0,0.6-0.1,1.5-0.3,2.6
			c-0.2,1.1-0.3,2.1-0.3,2.8C310.4,309.9,315.3,315.3,324.9,319.8z"/>
		<path class="st2" d="M315.9,96.5c2.7,0.2,4.1,1.7,4.1,4.5c0,1.8-0.8,3.8-2.3,6.1c-0.2,0.3-0.3,0.4-0.4,0.4c-0.2,0-0.3-0.2-0.4-0.7
			c-0.9-1.6-2-2.5-3.4-2.7c-1.1,0.2-2.3,0.7-3.7,1.7c-0.7,0.5-1.3,0.9-1.6,1.4l-4-1.6c0.2-0.3,0.5-0.7,0.8-1
			C309.3,99.4,313,96.7,315.9,96.5z"/>
		<path class="st1" d="M319.5,272.2c0,2.1-2,6.3-6.1,12.6c-0.3,0.6-0.6,0.9-0.9,0.9c-0.3,0-0.5-0.1-0.7-0.2
			c-3.9-2.9-8.4-5.9-13.3-9.2l0.7-3.8l4.5-9.5c0.4-0.6,0.8-0.9,1.1-0.9c0.6,0,3.2,1.5,7.8,4.6C317.2,269.8,319.5,271.6,319.5,272.2z
			"/>
		<path class="st1" d="M314.7,158.3l-0.2,0.5c-1.3,6.8-3.3,10.2-6.1,10.2c-3,0-4.5-2.5-4.5-7.3c0-6.2,1.8-12.7,5.4-19.4l1.6-2.6
			c0,0.3-0.2,1.3-0.7,2.8c-2.4,7-3.7,11.9-3.7,14.7c0,3.8,1,5.8,3.2,5.8c1.3,0,2.7-1.4,4.2-4.2l0.5-0.7c0.1,0,0.2,0,0.3,0.1
			S314.7,158.2,314.7,158.3z"/>
		<path class="st0" d="M311.6,226l-0.4,1.1c-0.9,2.6-1.7,4.2-2.5,5l-22.6,9.7l-9.9,5c0.7-2.4,1.7-4.9,2.9-7.4
			c9.8-5.1,19.8-9.5,30-13.3l2-0.4C311.4,225.5,311.6,225.7,311.6,226z"/>
		<path class="st0" d="M309.5,77.8l-0.2,1.8c-0.9,2.6-1.7,4.2-2.5,5l-22.6,9.7l-9.9,5c0.8-2.4,1.7-5,2.9-7.7c9.8-5,19.8-9.3,30-13.1
			L309.5,77.8z"/>
		<path class="st1" d="M304.6,360.4c3.5,5.6,5.2,12,5.2,19.2c0,19.3-8,36.5-24.1,51.9c-16.1,15.3-33.8,23-53.2,23
			c-34.9,0-52.3-19.3-52.3-58c0-14.3,2.2-27.7,6.5-40.1c-2-0.4-3.9-1.1-5.9-1.8v-17.8c2.4,1.1,6.5,2.6,12.4,4.7
			c2.6-5.1,6.7-10.9,12.4-17.4c5.1-5.7,9.7-10.2,13.7-13.5c-4.5-4.4-9.2-8.1-14-11.3c-4.4-2.7-7.6-4.1-9.7-4.1
			c-2.2,0-5.7,1.4-10.4,4.3c-0.9,0.4-1.6,0.7-2,0.7c-0.6,0-0.9-0.4-0.9-1.1c0-0.3,1.5-5.5,4.5-15.6c0.9-2.7,5.6-5.4,14.2-8.2
			c8.6-2.8,16.8-4.2,24.8-4.4c9.2,0.2,17.7,1.3,25.7,3.4c6.8,2,11.9,4.2,15.3,6.8c2,1.5,2.9,3.1,2.9,4.7c0,0.6-0.1,1.2-0.4,1.8
			c-1.2,3.8-3,7.8-5.4,12.2c-4.7,2.1-12,5.7-22.1,10.8c2.4,2.6,6.3,4.8,11.7,6.6c5.4,1.9,10.7,2.8,15.8,2.8v18
			c-14,0-27.9-6.2-41.7-18.5c-10.1,6.3-18.7,14.1-25.9,23.5c9,1.5,23.2,2.3,42.4,2.3h5.4c21.5,0.2,35.8,1.7,42.8,4.5
			C297.4,352,301.4,355.6,304.6,360.4z M305,388.4c0-4.8-1.7-9.4-5.2-13.8c-3.8-4.8-8.9-8.1-15.3-9.9c-7.4-2.1-25.8-3.2-55.3-3.2
			c-10.7,0-22.6-1.2-35.6-3.6c-5.1,12-7.7,23.6-7.7,34.7c0,29.2,16.4,43.8,49.2,43.8c11,0,22.2-2.9,33.6-8.8
			c10.2-5.1,18.8-11.5,25.8-19.2C301.5,400.8,305,394.1,305,388.4z M244.8,293c-3-2.2-8.6-3.4-16.7-3.4c-3.5,0-6.6,0.3-9.5,0.9
			c5.4,3.6,9.5,7.1,12.4,10.4C234.2,298.9,238.8,296.3,244.8,293z"/>
		<path class="st2" d="M299.2,272.4l-0.7,3.8c-3,6.9-5,10.4-5.9,10.4l-0.7-0.2c-4.4-3.3-8.9-6.5-13.7-9.5l-0.2-0.4l5.9-12.4
			c0.4-0.8,0.8-1.1,1.1-1.1c0.6,0,2.8,1.3,6.7,4C295.4,269.6,298,271.4,299.2,272.4z"/>
		<path class="st2" d="M280.9,166.4c5.4,15.3,8.1,26.5,8.1,33.4c0,7.1-1.1,13.2-3.2,18.5c-3.5,8.9-9.5,13.3-18,13.3
			c-9.2,0-16.4-4-21.6-12c-3.2-4.7-6-11.7-8.4-21.2c-1.1,9.5-4.1,17.7-9.2,24.6c-4.4,5.8-9.5,9.6-15.5,11.3
			c-0.3,0.1-0.6,0.2-0.9,0.2c-0.6,0.1-1.1,0.3-1.7,0.4c0,0,0,0,0,0c-0.6,0.1-1.2,0.2-1.9,0.3c-0.6,0.1-1.3,0.1-1.9,0.2h-1.6
			c-10.4,0-17.7-5-21.9-14.9c-2.4-5.7-3.6-12.4-3.6-20.1c0-9.9,1.2-19.3,3.6-28c0.6-2.4,0.9-4,0.9-4.7c0-0.4-0.1-0.7-0.2-0.7
			c-0.4,0-1.4,1.2-2.9,3.6c-2.3,3.6-4.7,11.1-7.4,22.3c-3.3,14.4-5.5,23.1-6.5,26.1c-1.4,4.1-3.3,7.4-5.9,9.9
			c-2,2.1-3.7,3.1-5.2,3.1c-6.8,0-12-4.3-15.6-12.8c-3-7.1-4.5-15.6-4.5-25.5c0-7.1,1-14.7,3.1-23c1.1-3.3,1.9-5,2.5-5
			c0.3,0,0.5,0.4,0.5,1.3c0,1.1-0.2,2.5-0.5,4.3c-1.2,6.2-1.8,11.9-1.8,17.1c0,20.3,4.3,30.4,12.8,30.4c3.6,0,6.6-2.8,9-8.3
			c1.5-3.3,3.3-9.8,5.4-19.4c2.5-10.7,4.7-18.4,6.3-23.2c2.1-5.7,4.6-10.7,7.4-15.1c3.2-5,5.9-7.4,8.3-7.4c1.8,0,2.7,2,2.7,6.1
			c0,3.5-0.9,10.3-2.8,20.6c-1.9,10.3-2.8,17.2-2.8,20.6c0,7.7,1.6,13.6,4.7,17.9c3.2,4.3,7.4,6.4,12.8,6.4h2c0.7,0,1.4-0.1,2.1-0.1
			c0.5,0,0.9-0.1,1.4-0.2c2.2-0.3,4.3-0.7,6.2-1.3c0,0,0,0,0,0c5-1.6,9-4.3,12-8.1c4.1-5,6.1-11.2,6.1-18.7
			c0-12.9-1.7-24.4-5.2-34.5l-1.8-5.2c0-4.1,1.3-9.7,4.1-16.9c0.6-1.5,1.1-2.3,1.6-2.3c0.3,0,1,1.1,2,3.2c3.8,8,6.8,20.2,9,36.5
			c2.1,15.5,5.1,26.5,9,33.2c3.9,6.6,9.9,9.9,18.1,9.9c6.6,0,11-2.5,13.1-7.4c0-1.7-1.4-5.2-4.3-10.6c-7.2-14.3-11.8-28.7-13.8-43.3
			l-0.9-5.6c-0.4-1.7-1.3-3.3-2.5-5l4.1-11.7c0.6-1.3,1.1-2,1.6-2c0.4,0,1.2,0.7,2.2,2c9.3,13.2,14,20.7,14,22.3
			c0,0.8-0.3,1.1-0.9,1.1c-1.2,0-3.4-1.1-6.5-3.2c-0.3,0.2-0.5,0.4-0.7,0.7C276.8,154.1,278.5,159.5,280.9,166.4z"/>
		<path class="st2" d="M281.3,380l-0.2,1.4c-1.1,2.6-2,4.1-2.7,4.7c-20.6,7.5-44.8,16.8-72.6,28c0.6-2.4,1.6-5.1,2.9-7.9l72.4-26.4
			C281.3,379.8,281.3,379.9,281.3,380z"/>
		<path class="st1" d="M253.6,94.3c2.7,6.3,4.1,10.2,4.1,11.7c0,2.3-0.5,4.7-1.6,7.2c-1.5,3.3-3.3,5-5.4,5c-3.5,0-5.9-2.4-7.2-7.2
			c-1.7,6-4.7,9-9,9c-1.7,0-3.1-0.9-4.4-2.7c-1.3-1.8-1.9-4.2-1.9-7.2v-5.4h3.1c0,1.8,0.4,3.6,1.1,5.3c0.8,1.7,1.7,2.6,2.9,2.6
			c1.8,0,3.4-0.7,4.9-2.1c1.4-1.4,2.1-3.2,2.1-5.3c0-1.1-0.4-3-1.1-5.8c-0.8-2.8-1.2-4.5-1.4-5.1c0.2-0.6,0.5-1.6,1.1-2.9
			c0.6-1.3,1-2,1.1-2c0.6,0.1,1.3,2.1,2.1,5.8c0.8,3.7,1.2,6.3,1.2,8c0,5.1,2,7.7,5.9,7.7c1.8,0,2.9-0.8,3.2-2.5
			c-3.3-5.9-5-10.4-5-13.5c0-1.8,0.4-3.3,1.1-4.5c0.7-1.2,1.3-1.8,1.6-1.8c0.3,0,0.5,0.7,0.7,2.2C253.1,92,253.3,93.2,253.6,94.3z"
			/>
		<path class="st0" d="M245.5,246.7c0,2.1-2,6.4-5.9,12.9c-0.3,0.4-0.6,0.7-0.9,0.7L238,260c-4.5-3.3-9.2-6.5-14-9.5v-0.4
			c0-0.3,2-4.4,5.9-12.4c0.3-0.7,0.7-1.1,1.1-1.1c0.6,0,3.1,1.5,7.7,4.6C243.2,244.3,245.5,246.1,245.5,246.7z"/>
		<path class="st2" d="M240.3,74.2c0,3.8-0.6,7.2-1.8,10.4c-0.6,1.5-1.2,2.2-1.8,2.2c-0.3,0-0.5-0.3-0.5-0.9l0.2-1.8
			c0.3-1.7,0.4-3.8,0.4-6.3c0-8.4-4.7-16.8-14-25c-0.4-0.4-0.7-0.9-0.7-1.3l0.2-0.7c2-3.5,3.1-5.2,3.4-5.2l0.7,0.4
			C235.7,52.9,240.3,62.3,240.3,74.2z"/>
		<path class="st1" d="M231.7,97.4c0,1.8-0.1,3.3-0.2,4.4c-0.2,1.1-0.2,2.1-0.2,2.8h-3.1v-2c0-0.6-0.4-1-1.2-1.2
			c-0.8-0.2-1.2-0.9-1.2-1.9c0-1.6,0.6-3.2,1.9-4.6c1.3-1.4,2.3-2.1,3.1-2.1C231.4,92.7,231.7,94.3,231.7,97.4z"/>
		<path class="st1" d="M216.2,115.2c0,0.9-0.2,1.3-0.7,1.3c-1.2,0-3.5-2-7-6.1l-0.4-0.4c-0.3,0-0.4,0.5-0.4,1.6l3.8,49.4
			c2.7,31.2,4.1,49.5,4.1,54.8c-1.9,0.6-4,1-6.2,1.3c-0.5,0.1-0.9,0.1-1.4,0.2c-0.7,0.1-1.4,0.1-2.1,0.1c-0.7-11-2-26.8-3.6-47.4
			c-3-37.6-4.5-58.9-4.5-64c0-5.7-0.9-10.4-2.7-14.2c0-2.1,1.6-7.1,5-14.9c0.4-0.9,0.8-1.3,1.1-1.3c0.4,0,0.9,0.4,1.3,1.3
			c0.9,2.1,3.2,7.9,6.8,17.3c3.6,9.4,5.7,15.1,6.2,17C215.9,113.1,216.2,114.5,216.2,115.2z"/>
		<path class="st2" d="M215.5,215.8C215.5,215.8,215.5,215.8,215.5,215.8c-1.9,0.6-3.9,1.1-6.2,1.3
			C211.5,216.8,213.6,216.4,215.5,215.8z"/>
		<path class="st1" d="M213.1,234.4c0.4-0.1,0.7-0.2,1.1-0.3c-1.1,6.9-2.7,13.3-5,19.2c-1.8,4.1-2.9,6.1-3.4,6.1
			c-0.3,0-0.4-0.6-0.4-1.8c0-1.2,0.2-3.2,0.4-5.9c0.6-4.7,0.9-10.1,0.9-16.2c0.7,0,1.3-0.1,1.9-0.2c0.6-0.1,1.3-0.2,1.9-0.3
			c0,0,0,0,0,0c0.6-0.1,1.1-0.2,1.7-0.4C212.5,234.6,212.8,234.5,213.1,234.4z"/>
		<path class="st2" d="M210.5,235c0.6-0.1,1.1-0.2,1.7-0.4C211.6,234.8,211.1,234.9,210.5,235z"/>
		<path class="st2" d="M208.6,235.3c0.6-0.1,1.2-0.2,1.9-0.3C209.9,235.1,209.2,235.2,208.6,235.3z"/>
		<path class="st2" d="M207.9,217.3c0.5,0,0.9-0.1,1.4-0.2C208.9,217.2,208.4,217.2,207.9,217.3z"/>
		<path class="st2" d="M206.7,235.5c0.6,0,1.3-0.1,1.9-0.2C208,235.4,207.3,235.4,206.7,235.5z"/>
		<path class="st0" d="M180.8,354.5v0.2c-5.4-2.3-9.8-4.8-13.1-7.7c-3.9-3.2-7.8-7.8-11.7-14l-19.6,8.3v-16v-0.2l14.7-6.1
			c-2.3-7.5-3.4-13.5-3.4-18c0-8.9,1.4-16,4.3-21.5c2.9-5.5,6.5-8.2,11.1-8.2c3.8,0,7.4,3.5,11.1,10.4c3,6,4.5,11,4.5,14.9
			c0,0.8,0,1.7,0,2.5c-0.5,12.1-4.7,21.2-12.6,27.1c3.3,3.9,8.3,7.4,14.9,10.6V354.5z M173.1,305.4c0-2.1-1.5-5.6-4.5-10.5
			c-3-4.9-5.7-7.3-8.1-7.3c-2,0-3.8,1.2-5.4,3.7c-1.6,2.5-2.5,4.9-2.5,7.3c0,5,2,10.8,5.9,17.6C168.2,311.8,173.1,308.2,173.1,305.4
			z"/>
		<path class="st0" d="M175.4,128.1l0.2,1.3c0,1-0.1,2-0.4,3.2l-3.1,0.2l-0.4-1.1c-1.5-3.5-4.1-5.9-7.9-7.4c0,3.3-0.4,5.9-1.1,7.9
			l-2.7-0.4l0.4-2.7l-0.4-2.9c-0.6-2.2-1.6-3.4-2.9-3.4c-0.8,0-1.8,0.7-3.3,2.1c-1.3,1.3-2,2.2-2.1,2.8l-2.4-0.3
			c0.4-1.9,1-3.7,2-5.3c-0.5-1.5-0.7-2.9-0.7-4.1c0-1.6,0.5-3,1.6-4.1c1-1,2.4-1.6,4.1-1.6c1.5,0,3.3,0.5,5.4,1.6
			C168.4,117.8,173.1,122.5,175.4,128.1z"/>
		<path class="st0" d="M172,132.8l3.1-0.2c-0.3,1.1-0.7,2.3-1.3,3.6c-1.2,2.6-2.3,3.8-3.4,3.8l-9.9-1.1c-3.2,4.4-7.1,8.3-11.7,11.7
			c-5.4,4.1-10.4,7.1-14.9,9c-0.9,0.6-6.2,2.6-15.8,6.1c-1.5,0.6-2.6,0.9-3.1,0.9c-0.2,0-0.2-0.1-0.2-0.2c0-0.3,0.8-1.1,2.5-2.3
			l21-12.4c8.1-4.7,14.4-9.1,18.7-13.3c-5.4-1.3-8.1-3.9-8.1-7.7c0-1.2,0.1-2.3,0.3-3.5l2.4,0.3c0,0.1,0,0.2,0,0.2
			c0,1.8,2.8,3.1,8.3,3.8l2.7,0.4c0.4,0.2,3.3,0.6,8.6,1.3C171.7,133.5,172,133.3,172,132.8z"/>
		<path class="st1" d="M173.1,248.3c0,2-2,6.2-5.9,12.6c-0.3,0.6-0.6,0.9-0.9,0.9c-0.3,0-0.5-0.1-0.7-0.2c-4.5-3.3-9.2-6.5-14-9.5
			v-0.4c0-0.3,2-4.5,5.9-12.6c0.3-0.6,0.7-0.9,1.1-0.9c0.6,0,3.2,1.5,7.7,4.6C170.8,245.9,173.1,247.7,173.1,248.3z"/>
		<path class="st0" d="M170.2,412.3c0,0.8-0.2,1.9-0.7,3.4c-0.4,1.5-1.1,2.3-1.8,2.3c-0.3,0-0.9-0.6-1.9-1.9c-1-1.3-2-1.9-3.1-1.9
			c-2.4,0.1-4.7,5.8-6.8,16.9c-0.1,0.5-0.2,1-0.3,1.5l-3.1-0.6c0-1.8,1.4-7.9,4.3-18.3c2.2-5.4,4.7-8.1,7.4-8.1c1.3,0,2.7,0.9,4,2.7
			C169.5,410,170.2,411.4,170.2,412.3z"/>
		<path class="st2" d="M162,362.2l-0.2,1.1c-0.9,2.6-1.7,4.2-2.5,5l-22.8,9.7l-9.7,5c0.6-2.4,1.5-4.9,2.7-7.5
			c9.8-5.1,19.9-9.5,30.2-13.3l1.8-0.4C161.9,361.8,162,361.9,162,362.2z"/>
		<path class="st0" d="M152.6,431.9l3.1,0.6c-1.4,7.3-3,10.9-4.7,10.9c-0.5,0-0.7-0.7-0.7-2c0-1.6-0.7-4.4-2.2-8.4l4.3-0.8
			L152.6,431.9z"/>
		<path class="st0" d="M152.3,432.1l-4.3,0.8c-0.3-0.9-0.7-1.9-1.1-3c-2.3-5.6-3.9-8.4-5-8.4c-0.6,0-1,0.2-1.1,0.6
			c-0.2,0.4-0.4,0.6-0.9,0.6H139c-1.1,0-2.4-0.7-3.9-2.1c-1.6-1.4-2.4-2.7-2.4-3.7c0-0.3,0.7-1.6,2-4c1.3-2.3,2.2-3.5,2.7-3.5
			c3.3,0,6.3,2,8.9,6c2.6,4,4.6,9.1,5.8,15.4v1.1L152.3,432.1z"/>
		<path class="st2" d="M136.3,325.4v16c-21.2,9.2-34.3,15.7-39.2,19.6c-6.2,4.7-15.1,13.8-26.8,27.5c-7.1,8-14.1,12-21.2,12
			c-5.9,0-11.1-2.7-15.7-8.1s-6.9-12.2-6.9-20.3c0-11,4.6-25.4,13.8-43.3c0.9-1.8,1.6-2.7,2.2-2.7c0.2,0,0.2,0.2,0.2,0.7
			c0,1.8-2,8-5.9,18.7C33,356.2,31,364.6,31,370.8c0,4.7,1.1,8.5,3.4,11.4c2.3,2.9,5.5,4.4,9.7,4.4c7.4,0,14.8-3.8,22.3-11.3
			l14.4-16.9c6.2-7.1,14.4-13.4,24.6-19C111.3,336.3,121.6,331.6,136.3,325.4z"/>
		<path class="st2" d="M126,286c0,1.5-1.3,4.1-3.8,7.7c-0.7-1.2-2.5-2.6-5.2-4.3c-3,4.4-6.9,8.4-11.7,12c-5.4,4-10.4,7.1-15.1,9
			c-0.9,0.5-6.2,2.5-15.8,6.1c-1.5,0.6-2.5,0.9-2.9,0.9l-0.4-0.2c0.2-0.4,1.1-1.2,2.7-2.2l21.2-12.6c8.6-5.1,15-9.9,19.2-14.4
			c-5.7-2.9-8.6-5.9-8.6-9c0-1.7,0.3-3.2,1-4.8l4.2,0.5c0,0.1,0,0.2,0,0.2c0,1.5,2.3,3.3,6.8,5.4l3.1,1.6
			C123.4,283.3,125.2,284.8,126,286z"/>
		<path class="st2" d="M118.3,264.5c2.9,0,4.3,2.2,4.3,6.5c0,3.2-0.7,6.7-2,10.6l-3.1-1.6c0.3-1.1,0.4-2.1,0.4-3.2
			c0-3.3-0.9-5-2.7-5c-0.8,0-1.7,0.3-2.8,0.9c-1,0.5-1.5,1.1-1.7,1.6l-4.2-0.5c0.9-2,2.4-3.8,4.4-5.6
			C113.7,265.8,116.2,264.5,118.3,264.5z"/>
		<path class="st1" d="M117.8,397.6v1.1c-1.5,8.9-4.1,13.3-7.9,13.3c-3.9,0-5.9-3.2-5.9-9.7c0-8,2.3-16.3,7-25l2-3.4h0.2v0.2
			c0,0.3-0.4,1.5-1.1,3.6c-3.2,9-4.7,15.3-4.7,18.9c0,4.8,1.4,7.2,4.3,7.2c1.5,0,3.3-1.8,5.4-5.4L117.8,397.6z"/>
		<path class="st0" d="M103.4,239.5c0,0.7-0.2,1.9-0.7,3.4c-0.4,1.5-1.1,2.3-1.8,2.3c-0.3,0-1-0.6-2-1.8c-1.1-1.2-2.1-1.9-3.2-2
			c-2.4,0.2-4.6,5.8-6.5,16.9c-1.8,8.3-3.5,12.4-5,12.4c-0.4,0-0.7-0.8-0.8-2.4c-0.1-1.6-1.2-5.2-3.5-10.9c-2.2-5.7-3.8-8.6-4.7-8.6
			c-0.8,0-1.2,0.2-1.4,0.7c-0.1,0.4-0.7,0.7-1.6,0.7c-1.1,0-2.4-0.8-4.1-2.3c-1.7-1.5-2.5-2.8-2.5-3.8c0-0.3,0.7-1.6,2.1-4
			c1.4-2.3,2.3-3.5,2.6-3.5c3.3,0,6.3,2,9,6c2.7,4,4.6,9.1,5.6,15.5l0.2,1.1l0.2,0.2L86,258c0.6-3.8,2-9.4,4.1-16.9
			c2.3-5.4,4.7-8.2,7.4-8.4c1.4,0.2,2.7,1.1,4,2.8C102.8,237.3,103.4,238.6,103.4,239.5z"/>
		<path class="st1" d="M99.6,205.2c0,0.2,0,0.4,0,0.9c-1.7,8.9-4.3,13.3-7.9,13.3c-3.9,0-5.9-3.2-5.9-9.7c0-8,2.2-16.3,6.8-25
			c1.2-2.2,2-3.4,2.3-3.4c0,0.4-0.4,1.7-1.1,3.6c-3,9-4.5,15.3-4.5,18.9c0,5,1.3,7.4,4.1,7.4c1.6,0,3.5-1.8,5.4-5.4l0.4-0.9
			C99.4,205,99.6,205.1,99.6,205.2z"/>
		<path class="st1" d="M61.2,298.8v1.1c-1.7,8.9-4.3,13.3-7.9,13.3c-3.9,0-5.9-3.2-5.9-9.7c0-8,2.3-16.3,6.8-25l2-3.4h0.2v0.2
			c0,0.3-0.4,1.5-1.1,3.6c-3,9-4.5,15.3-4.5,18.9c0,4.8,1.4,7.2,4.1,7.2c1.7,0,3.5-1.8,5.4-5.4C60.6,299.1,60.9,298.8,61.2,298.8z"
			/>
	</g>
</g>
<text transform="matrix(1 0 0 1 703.8232 1218)"><tspan x="0" y="0" style="font-family:'AdobeArabic-Regular'; font-size:12px;">ليمحت</tspan><tspan x="20.4" y="0" style="font-family:'MyriadPro-Regular'; font-size:12px;"> Mp3 </tspan><tspan x="48.2" y="0" style="font-family:'AdobeArabic-Regular'; font-size:12px;">عمتسإ</tspan></text>
</svg>
